# xmcd
#
# Track frame offsets: 
#        150
#        12522
#        26035
#        43028
#        70592
#        99316
#        118770
#        138828
#        153985
#        173022
#        195713
#        220929
#        245512
#        273071
#        292065
#
# Disc length: 4244 seconds
#
# Revision: 1
# Processed by: cddbd v1.5.2PL0 Copyright (c) Steve Scherf et al.
# Submitted via: ExactAudioCopy v0.99pb4
#
DISCID=d210920f
DTITLE=The O'Jays - Anthology [CD1]
DYEAR=2003
DGENRE=Soul
TTITLE0=Lipstick Traces (On A Cigarette)
TTITLE1=Love Train
TTITLE2=For The Love Of Money
TTITLE3=I Love Music
TTITLE4=Message In Our Music
TTITLE5=Darlin Darlin Baby (Sweet Tender Love)
TTITLE6=Work On Me
TTITLE7=Use Ta Be My Girl
TTITLE8=Brandy
TTITLE9=Sing A Happy Song
TTITLE10=Cry Together
TTITLE11=I Want You Here With Me
TTITLE12=Forever Mine
TTITLE13=Girl Don't Let It Get You Down
TTITLE14=Once Is Not Enough
EXTD=
EXTT0=
EXTT1=
EXTT2=
EXTT3=
EXTT4=
EXTT5=
EXTT6=
EXTT7=
EXTT8=
EXTT9=
EXTT10=
EXTT11=
EXTT12=
EXTT13=
EXTT14=
PLAYORDER=
